<svg width="20" height="20" viewBox="0 0 20 20" fill="none" xmlns="http://www.w3.org/2000/svg">
<path d="M11 8.83334H14.75L14.3333 10.5H11V18H9.33333V10.5H6V8.83334H9.33333V7.27315C9.33333 5.78729 9.48808 5.24848 9.77858 4.70527C10.0691 4.16206 10.4954 3.73574 11.0386 3.44524C11.5818 3.15472 12.1206 3.00001 13.6065 3.00001C14.0415 3.00001 14.4227 3.04168 14.75 3.12501V4.66668H13.6065C12.5034 4.66668 12.1675 4.73154 11.8246 4.91492C11.5718 5.0501 11.3834 5.2385 11.2483 5.49127C11.0648 5.83414 11 6.17007 11 7.27315V8.83334Z" fill="white"/>
</svg>
